<mxfile host="app.diagrams.net" agent="Mozilla/5.0 (Windows NT 10.0; Win64; x64) AppleWebKit/537.36 (KHTML, like Gecko) Chrome/132.0.0.0 Safari/537.36" version="26.0.14">
  <diagram name="Page-1" id="SnCFEjxA2gkTvQhNI5K7">
    <mxGraphModel dx="1500" dy="1846" grid="1" gridSize="10" guides="1" tooltips="1" connect="1" arrows="1" fold="1" page="1" pageScale="1" pageWidth="850" pageHeight="1100" math="0" shadow="0">
      <root>
        <mxCell id="0" />
        <mxCell id="1" parent="0" />
        <mxCell id="ZblkUGnRswej1e16zb3S-1" value="AWS Account" style="points=[[0,0],[0.25,0],[0.5,0],[0.75,0],[1,0],[1,0.25],[1,0.5],[1,0.75],[1,1],[0.75,1],[0.5,1],[0.25,1],[0,1],[0,0.75],[0,0.5],[0,0.25]];outlineConnect=0;gradientColor=none;html=1;whiteSpace=wrap;fontSize=12;fontStyle=0;container=1;pointerEvents=0;collapsible=0;recursiveResize=0;shape=mxgraph.aws4.group;grIcon=mxgraph.aws4.group_account;strokeColor=#CD2264;fillColor=none;verticalAlign=top;align=left;spacingLeft=30;fontColor=#CD2264;dashed=0;" vertex="1" parent="1">
          <mxGeometry x="30" y="40" width="1340" height="520" as="geometry" />
        </mxCell>
        <mxCell id="ZblkUGnRswej1e16zb3S-128" value="Default VPC" style="points=[[0,0],[0.25,0],[0.5,0],[0.75,0],[1,0],[1,0.25],[1,0.5],[1,0.75],[1,1],[0.75,1],[0.5,1],[0.25,1],[0,1],[0,0.75],[0,0.5],[0,0.25]];outlineConnect=0;gradientColor=none;html=1;whiteSpace=wrap;fontSize=12;fontStyle=0;container=1;pointerEvents=0;collapsible=0;recursiveResize=0;shape=mxgraph.aws4.group;grIcon=mxgraph.aws4.group_vpc2;strokeColor=#8C4FFF;fillColor=none;verticalAlign=top;align=left;spacingLeft=30;fontColor=#AAB7B8;dashed=0;" vertex="1" parent="ZblkUGnRswej1e16zb3S-1">
          <mxGeometry x="1010" y="40" width="280" height="430" as="geometry" />
        </mxCell>
        <mxCell id="ZblkUGnRswej1e16zb3S-136" value="" style="outlineConnect=0;dashed=0;verticalLabelPosition=bottom;verticalAlign=top;align=center;html=1;shape=mxgraph.aws3.route_table;fillColor=#F58536;gradientColor=none;" vertex="1" parent="ZblkUGnRswej1e16zb3S-128">
          <mxGeometry x="150" y="39" width="60" height="50" as="geometry" />
        </mxCell>
        <mxCell id="ZblkUGnRswej1e16zb3S-131" value="" style="outlineConnect=0;dashed=0;verticalLabelPosition=bottom;verticalAlign=top;align=center;html=1;shape=mxgraph.aws3.vpc_peering;fillColor=#F58536;gradientColor=none;" vertex="1" parent="ZblkUGnRswej1e16zb3S-1">
          <mxGeometry x="890" y="190" width="120" height="120" as="geometry" />
        </mxCell>
        <mxCell id="ZblkUGnRswej1e16zb3S-4" value="expense-dev" style="points=[[0,0],[0.25,0],[0.5,0],[0.75,0],[1,0],[1,0.25],[1,0.5],[1,0.75],[1,1],[0.75,1],[0.5,1],[0.25,1],[0,1],[0,0.75],[0,0.5],[0,0.25]];outlineConnect=0;gradientColor=none;html=1;whiteSpace=wrap;fontSize=12;fontStyle=0;container=1;pointerEvents=0;collapsible=0;recursiveResize=0;shape=mxgraph.aws4.group;grIcon=mxgraph.aws4.group_vpc2;strokeColor=#8C4FFF;fillColor=none;verticalAlign=top;align=left;spacingLeft=30;fontColor=#AAB7B8;dashed=0;" vertex="1" parent="1">
          <mxGeometry x="80" y="80" width="840" height="440" as="geometry" />
        </mxCell>
        <mxCell id="ZblkUGnRswej1e16zb3S-5" value="Internet&#xa;gateway" style="sketch=0;outlineConnect=0;fontColor=#232F3E;gradientColor=none;strokeColor=#232F3E;fillColor=#ffffff;dashed=0;verticalLabelPosition=bottom;verticalAlign=top;align=center;html=1;fontSize=12;fontStyle=0;aspect=fixed;shape=mxgraph.aws4.resourceIcon;resIcon=mxgraph.aws4.internet_gateway;" vertex="1" parent="ZblkUGnRswej1e16zb3S-4">
          <mxGeometry x="-30" y="190" width="60" height="60" as="geometry" />
        </mxCell>
        <mxCell id="ZblkUGnRswej1e16zb3S-7" value="us-east-1b" style="sketch=0;outlineConnect=0;gradientColor=none;html=1;whiteSpace=wrap;fontSize=12;fontStyle=0;shape=mxgraph.aws4.group;grIcon=mxgraph.aws4.group_availability_zone;strokeColor=#545B64;fillColor=none;verticalAlign=top;align=left;spacingLeft=30;fontColor=#545B64;dashed=1;" vertex="1" parent="ZblkUGnRswej1e16zb3S-4">
          <mxGeometry x="40" y="260" width="760" height="140" as="geometry" />
        </mxCell>
        <mxCell id="ZblkUGnRswej1e16zb3S-19" value="" style="sketch=0;outlineConnect=0;fontColor=#232F3E;gradientColor=none;strokeColor=none;fillColor=#ffffff;dashed=0;verticalLabelPosition=bottom;verticalAlign=top;align=center;html=1;fontSize=12;fontStyle=0;aspect=fixed;shape=mxgraph.aws4.resourceIcon;resIcon=mxgraph.aws4.route_table;" vertex="1" parent="ZblkUGnRswej1e16zb3S-4">
          <mxGeometry x="669" y="19" width="70" height="70" as="geometry" />
        </mxCell>
        <mxCell id="ZblkUGnRswej1e16zb3S-6" value="us-east-1a" style="sketch=0;outlineConnect=0;gradientColor=none;html=1;whiteSpace=wrap;fontSize=12;fontStyle=0;shape=mxgraph.aws4.group;grIcon=mxgraph.aws4.group_availability_zone;strokeColor=#545B64;fillColor=none;verticalAlign=top;align=left;spacingLeft=30;fontColor=#545B64;dashed=1;" vertex="1" parent="1">
          <mxGeometry x="120" y="120" width="760" height="140" as="geometry" />
        </mxCell>
        <mxCell id="ZblkUGnRswej1e16zb3S-8" value="&lt;b&gt;Public subnet&lt;/b&gt;" style="points=[[0,0],[0.25,0],[0.5,0],[0.75,0],[1,0],[1,0.25],[1,0.5],[1,0.75],[1,1],[0.75,1],[0.5,1],[0.25,1],[0,1],[0,0.75],[0,0.5],[0,0.25]];outlineConnect=0;gradientColor=none;html=1;whiteSpace=wrap;fontSize=12;fontStyle=0;container=1;pointerEvents=0;collapsible=0;recursiveResize=0;shape=mxgraph.aws4.group;grIcon=mxgraph.aws4.group_security_group;grStroke=0;strokeColor=#7AA116;fillColor=#F2F6E8;verticalAlign=top;align=left;spacingLeft=30;fontColor=#248814;dashed=0;" vertex="1" parent="1">
          <mxGeometry x="220" y="160" width="140" height="240" as="geometry" />
        </mxCell>
        <mxCell id="ZblkUGnRswej1e16zb3S-9" value="&lt;b&gt;Private subnet&lt;/b&gt;" style="points=[[0,0],[0.25,0],[0.5,0],[0.75,0],[1,0],[1,0.25],[1,0.5],[1,0.75],[1,1],[0.75,1],[0.5,1],[0.25,1],[0,1],[0,0.75],[0,0.5],[0,0.25]];outlineConnect=0;gradientColor=none;html=1;whiteSpace=wrap;fontSize=12;fontStyle=0;container=1;pointerEvents=0;collapsible=0;recursiveResize=0;shape=mxgraph.aws4.group;grIcon=mxgraph.aws4.group_security_group;grStroke=0;strokeColor=#00A4A6;fillColor=#E6F6F7;verticalAlign=top;align=left;spacingLeft=30;fontColor=#147EBA;dashed=0;" vertex="1" parent="1">
          <mxGeometry x="469" y="160" width="130" height="240" as="geometry" />
        </mxCell>
        <mxCell id="ZblkUGnRswej1e16zb3S-16" value="&lt;b&gt;Database subnet&lt;/b&gt;" style="points=[[0,0],[0.25,0],[0.5,0],[0.75,0],[1,0],[1,0.25],[1,0.5],[1,0.75],[1,1],[0.75,1],[0.5,1],[0.25,1],[0,1],[0,0.75],[0,0.5],[0,0.25]];outlineConnect=0;html=1;whiteSpace=wrap;fontSize=12;fontStyle=0;container=1;pointerEvents=0;collapsible=0;recursiveResize=0;shape=mxgraph.aws4.group;grIcon=mxgraph.aws4.group_security_group;grStroke=0;strokeColor=#d6b656;fillColor=#fff2cc;verticalAlign=top;align=left;spacingLeft=30;dashed=0;" vertex="1" parent="1">
          <mxGeometry x="683" y="160" width="130" height="240" as="geometry" />
        </mxCell>
        <mxCell id="ZblkUGnRswej1e16zb3S-17" value="" style="outlineConnect=0;dashed=0;verticalLabelPosition=bottom;verticalAlign=top;align=center;html=1;shape=mxgraph.aws3.route_table;fillColor=#F58536;gradientColor=none;" vertex="1" parent="1">
          <mxGeometry x="300" y="110" width="60" height="50" as="geometry" />
        </mxCell>
        <mxCell id="ZblkUGnRswej1e16zb3S-18" value="" style="sketch=0;outlineConnect=0;fontColor=#232F3E;gradientColor=none;fillColor=#8C4FFF;strokeColor=none;dashed=0;verticalLabelPosition=bottom;verticalAlign=top;align=center;html=1;fontSize=12;fontStyle=0;aspect=fixed;pointerEvents=1;shape=mxgraph.aws4.route_table;" vertex="1" parent="1">
          <mxGeometry x="540" y="102.51" width="59" height="57.49" as="geometry" />
        </mxCell>
        <mxCell id="ZblkUGnRswej1e16zb3S-21" value="" style="shape=table;startSize=0;container=1;collapsible=0;childLayout=tableLayout;fontSize=16;" vertex="1" parent="1">
          <mxGeometry x="188" y="-94" width="170" height="100" as="geometry" />
        </mxCell>
        <mxCell id="ZblkUGnRswej1e16zb3S-47" style="shape=tableRow;horizontal=0;startSize=0;swimlaneHead=0;swimlaneBody=0;strokeColor=inherit;top=0;left=0;bottom=0;right=0;collapsible=0;dropTarget=0;fillColor=none;points=[[0,0.5],[1,0.5]];portConstraint=eastwest;fontSize=16;" vertex="1" parent="ZblkUGnRswej1e16zb3S-21">
          <mxGeometry width="170" height="33" as="geometry" />
        </mxCell>
        <mxCell id="ZblkUGnRswej1e16zb3S-48" value="&lt;font style=&quot;font-size: 12px;&quot;&gt;&lt;b&gt;CIDR&lt;/b&gt;&lt;/font&gt;" style="shape=partialRectangle;html=1;whiteSpace=wrap;connectable=0;strokeColor=inherit;overflow=hidden;fillColor=none;top=0;left=0;bottom=0;right=0;pointerEvents=1;fontSize=16;" vertex="1" parent="ZblkUGnRswej1e16zb3S-47">
          <mxGeometry width="104" height="33" as="geometry">
            <mxRectangle width="104" height="33" as="alternateBounds" />
          </mxGeometry>
        </mxCell>
        <mxCell id="ZblkUGnRswej1e16zb3S-49" value="&lt;font style=&quot;font-size: 12px;&quot;&gt;&lt;b&gt;Target&lt;/b&gt;&lt;/font&gt;" style="shape=partialRectangle;html=1;whiteSpace=wrap;connectable=0;strokeColor=inherit;overflow=hidden;fillColor=none;top=0;left=0;bottom=0;right=0;pointerEvents=1;fontSize=16;" vertex="1" parent="ZblkUGnRswej1e16zb3S-47">
          <mxGeometry x="104" width="66" height="33" as="geometry">
            <mxRectangle width="66" height="33" as="alternateBounds" />
          </mxGeometry>
        </mxCell>
        <mxCell id="ZblkUGnRswej1e16zb3S-22" value="" style="shape=tableRow;horizontal=0;startSize=0;swimlaneHead=0;swimlaneBody=0;strokeColor=inherit;top=0;left=0;bottom=0;right=0;collapsible=0;dropTarget=0;fillColor=none;points=[[0,0.5],[1,0.5]];portConstraint=eastwest;fontSize=16;" vertex="1" parent="ZblkUGnRswej1e16zb3S-21">
          <mxGeometry y="33" width="170" height="27" as="geometry" />
        </mxCell>
        <mxCell id="ZblkUGnRswej1e16zb3S-23" value="&lt;font style=&quot;font-size: 12px;&quot;&gt;&lt;b style=&quot;&quot;&gt;10.0.0.0/16&lt;/b&gt;&lt;/font&gt;" style="shape=partialRectangle;html=1;whiteSpace=wrap;connectable=0;strokeColor=inherit;overflow=hidden;fillColor=none;top=0;left=0;bottom=0;right=0;pointerEvents=1;fontSize=16;" vertex="1" parent="ZblkUGnRswej1e16zb3S-22">
          <mxGeometry width="104" height="27" as="geometry">
            <mxRectangle width="104" height="27" as="alternateBounds" />
          </mxGeometry>
        </mxCell>
        <mxCell id="ZblkUGnRswej1e16zb3S-24" value="&lt;font style=&quot;font-size: 12px;&quot;&gt;&lt;b&gt;Local&lt;/b&gt;&lt;/font&gt;" style="shape=partialRectangle;html=1;whiteSpace=wrap;connectable=0;strokeColor=inherit;overflow=hidden;fillColor=none;top=0;left=0;bottom=0;right=0;pointerEvents=1;fontSize=16;" vertex="1" parent="ZblkUGnRswej1e16zb3S-22">
          <mxGeometry x="104" width="66" height="27" as="geometry">
            <mxRectangle width="66" height="27" as="alternateBounds" />
          </mxGeometry>
        </mxCell>
        <mxCell id="ZblkUGnRswej1e16zb3S-26" value="" style="shape=tableRow;horizontal=0;startSize=0;swimlaneHead=0;swimlaneBody=0;strokeColor=inherit;top=0;left=0;bottom=0;right=0;collapsible=0;dropTarget=0;fillColor=none;points=[[0,0.5],[1,0.5]];portConstraint=eastwest;fontSize=16;" vertex="1" parent="ZblkUGnRswej1e16zb3S-21">
          <mxGeometry y="60" width="170" height="20" as="geometry" />
        </mxCell>
        <mxCell id="ZblkUGnRswej1e16zb3S-27" value="&lt;font style=&quot;font-size: 12px;&quot;&gt;&lt;b&gt;0.0.0.0/0&lt;span style=&quot;white-space: pre;&quot;&gt;&#x9;&lt;/span&gt;&lt;/b&gt;&lt;/font&gt;" style="shape=partialRectangle;html=1;whiteSpace=wrap;connectable=0;strokeColor=inherit;overflow=hidden;fillColor=none;top=0;left=0;bottom=0;right=0;pointerEvents=1;fontSize=16;" vertex="1" parent="ZblkUGnRswej1e16zb3S-26">
          <mxGeometry width="104" height="20" as="geometry">
            <mxRectangle width="104" height="20" as="alternateBounds" />
          </mxGeometry>
        </mxCell>
        <mxCell id="ZblkUGnRswej1e16zb3S-28" value="&lt;font style=&quot;font-size: 11px;&quot;&gt;&lt;b&gt;IGW&lt;/b&gt;&lt;/font&gt;" style="shape=partialRectangle;html=1;whiteSpace=wrap;connectable=0;strokeColor=inherit;overflow=hidden;fillColor=none;top=0;left=0;bottom=0;right=0;pointerEvents=1;fontSize=16;" vertex="1" parent="ZblkUGnRswej1e16zb3S-26">
          <mxGeometry x="104" width="66" height="20" as="geometry">
            <mxRectangle width="66" height="20" as="alternateBounds" />
          </mxGeometry>
        </mxCell>
        <mxCell id="ZblkUGnRswej1e16zb3S-74" style="shape=tableRow;horizontal=0;startSize=0;swimlaneHead=0;swimlaneBody=0;strokeColor=inherit;top=0;left=0;bottom=0;right=0;collapsible=0;dropTarget=0;fillColor=none;points=[[0,0.5],[1,0.5]];portConstraint=eastwest;fontSize=16;" vertex="1" parent="ZblkUGnRswej1e16zb3S-21">
          <mxGeometry y="80" width="170" height="20" as="geometry" />
        </mxCell>
        <mxCell id="ZblkUGnRswej1e16zb3S-75" value="&lt;font style=&quot;font-size: 12px;&quot;&gt;&lt;b&gt;172.31.0.0/16&lt;/b&gt;&lt;/font&gt;" style="shape=partialRectangle;html=1;whiteSpace=wrap;connectable=0;strokeColor=inherit;overflow=hidden;fillColor=none;top=0;left=0;bottom=0;right=0;pointerEvents=1;fontSize=16;" vertex="1" parent="ZblkUGnRswej1e16zb3S-74">
          <mxGeometry width="104" height="20" as="geometry">
            <mxRectangle width="104" height="20" as="alternateBounds" />
          </mxGeometry>
        </mxCell>
        <mxCell id="ZblkUGnRswej1e16zb3S-76" value="&lt;font style=&quot;font-size: 12px;&quot;&gt;&lt;b&gt;pcx-fd456a&lt;/b&gt;&lt;/font&gt;" style="shape=partialRectangle;html=1;whiteSpace=wrap;connectable=0;strokeColor=inherit;overflow=hidden;fillColor=none;top=0;left=0;bottom=0;right=0;pointerEvents=1;fontSize=16;" vertex="1" parent="ZblkUGnRswej1e16zb3S-74">
          <mxGeometry x="104" width="66" height="20" as="geometry">
            <mxRectangle width="66" height="20" as="alternateBounds" />
          </mxGeometry>
        </mxCell>
        <mxCell id="ZblkUGnRswej1e16zb3S-80" value="" style="shape=table;startSize=0;container=1;collapsible=0;childLayout=tableLayout;fontSize=16;" vertex="1" parent="1">
          <mxGeometry x="591" y="-90" width="156" height="84.00000000000023" as="geometry" />
        </mxCell>
        <mxCell id="ZblkUGnRswej1e16zb3S-81" style="shape=tableRow;horizontal=0;startSize=0;swimlaneHead=0;swimlaneBody=0;strokeColor=inherit;top=0;left=0;bottom=0;right=0;collapsible=0;dropTarget=0;fillColor=none;points=[[0,0.5],[1,0.5]];portConstraint=eastwest;fontSize=16;" vertex="1" parent="ZblkUGnRswej1e16zb3S-80">
          <mxGeometry width="156" height="30" as="geometry" />
        </mxCell>
        <mxCell id="ZblkUGnRswej1e16zb3S-82" value="&lt;font style=&quot;font-size: 12px;&quot;&gt;&lt;b&gt;CIDR&lt;/b&gt;&lt;/font&gt;" style="shape=partialRectangle;html=1;whiteSpace=wrap;connectable=0;strokeColor=inherit;overflow=hidden;fillColor=none;top=0;left=0;bottom=0;right=0;pointerEvents=1;fontSize=16;" vertex="1" parent="ZblkUGnRswej1e16zb3S-81">
          <mxGeometry width="78" height="30" as="geometry">
            <mxRectangle width="78" height="30" as="alternateBounds" />
          </mxGeometry>
        </mxCell>
        <mxCell id="ZblkUGnRswej1e16zb3S-83" value="&lt;font style=&quot;font-size: 12px;&quot;&gt;&lt;b&gt;Target&lt;/b&gt;&lt;/font&gt;" style="shape=partialRectangle;html=1;whiteSpace=wrap;connectable=0;strokeColor=inherit;overflow=hidden;fillColor=none;top=0;left=0;bottom=0;right=0;pointerEvents=1;fontSize=16;" vertex="1" parent="ZblkUGnRswej1e16zb3S-81">
          <mxGeometry x="78" width="78" height="30" as="geometry">
            <mxRectangle width="78" height="30" as="alternateBounds" />
          </mxGeometry>
        </mxCell>
        <mxCell id="ZblkUGnRswej1e16zb3S-84" value="" style="shape=tableRow;horizontal=0;startSize=0;swimlaneHead=0;swimlaneBody=0;strokeColor=inherit;top=0;left=0;bottom=0;right=0;collapsible=0;dropTarget=0;fillColor=none;points=[[0,0.5],[1,0.5]];portConstraint=eastwest;fontSize=16;" vertex="1" parent="ZblkUGnRswej1e16zb3S-80">
          <mxGeometry y="30" width="156" height="34" as="geometry" />
        </mxCell>
        <mxCell id="ZblkUGnRswej1e16zb3S-85" value="&lt;font style=&quot;font-size: 12px;&quot;&gt;&lt;b style=&quot;&quot;&gt;10.0.0.0/16&lt;/b&gt;&lt;/font&gt;" style="shape=partialRectangle;html=1;whiteSpace=wrap;connectable=0;strokeColor=inherit;overflow=hidden;fillColor=none;top=0;left=0;bottom=0;right=0;pointerEvents=1;fontSize=16;" vertex="1" parent="ZblkUGnRswej1e16zb3S-84">
          <mxGeometry width="78" height="34" as="geometry">
            <mxRectangle width="78" height="34" as="alternateBounds" />
          </mxGeometry>
        </mxCell>
        <mxCell id="ZblkUGnRswej1e16zb3S-86" value="&lt;font style=&quot;font-size: 12px;&quot;&gt;&lt;b&gt;Local&lt;/b&gt;&lt;/font&gt;" style="shape=partialRectangle;html=1;whiteSpace=wrap;connectable=0;strokeColor=inherit;overflow=hidden;fillColor=none;top=0;left=0;bottom=0;right=0;pointerEvents=1;fontSize=16;" vertex="1" parent="ZblkUGnRswej1e16zb3S-84">
          <mxGeometry x="78" width="78" height="34" as="geometry">
            <mxRectangle width="78" height="34" as="alternateBounds" />
          </mxGeometry>
        </mxCell>
        <mxCell id="ZblkUGnRswej1e16zb3S-87" value="" style="shape=tableRow;horizontal=0;startSize=0;swimlaneHead=0;swimlaneBody=0;strokeColor=inherit;top=0;left=0;bottom=0;right=0;collapsible=0;dropTarget=0;fillColor=none;points=[[0,0.5],[1,0.5]];portConstraint=eastwest;fontSize=16;" vertex="1" parent="ZblkUGnRswej1e16zb3S-80">
          <mxGeometry y="64" width="156" height="20" as="geometry" />
        </mxCell>
        <mxCell id="ZblkUGnRswej1e16zb3S-88" value="&lt;font style=&quot;font-size: 12px;&quot;&gt;&lt;b&gt;0.0.0.0/0&lt;span style=&quot;white-space: pre;&quot;&gt;&#x9;&lt;/span&gt;&lt;/b&gt;&lt;/font&gt;" style="shape=partialRectangle;html=1;whiteSpace=wrap;connectable=0;strokeColor=inherit;overflow=hidden;fillColor=none;top=0;left=0;bottom=0;right=0;pointerEvents=1;fontSize=16;" vertex="1" parent="ZblkUGnRswej1e16zb3S-87">
          <mxGeometry width="78" height="20" as="geometry">
            <mxRectangle width="78" height="20" as="alternateBounds" />
          </mxGeometry>
        </mxCell>
        <mxCell id="ZblkUGnRswej1e16zb3S-89" value="&lt;font style=&quot;font-size: 11px;&quot;&gt;&lt;b&gt;NAT&lt;/b&gt;&lt;/font&gt;" style="shape=partialRectangle;html=1;whiteSpace=wrap;connectable=0;strokeColor=inherit;overflow=hidden;fillColor=none;top=0;left=0;bottom=0;right=0;pointerEvents=1;fontSize=16;" vertex="1" parent="ZblkUGnRswej1e16zb3S-87">
          <mxGeometry x="78" width="78" height="20" as="geometry">
            <mxRectangle width="78" height="20" as="alternateBounds" />
          </mxGeometry>
        </mxCell>
        <mxCell id="ZblkUGnRswej1e16zb3S-106" value="" style="shape=table;startSize=0;container=1;collapsible=0;childLayout=tableLayout;fontSize=16;" vertex="1" parent="1">
          <mxGeometry x="1097" y="-93" width="207" height="73.00000000000023" as="geometry" />
        </mxCell>
        <mxCell id="ZblkUGnRswej1e16zb3S-107" style="shape=tableRow;horizontal=0;startSize=0;swimlaneHead=0;swimlaneBody=0;strokeColor=inherit;top=0;left=0;bottom=0;right=0;collapsible=0;dropTarget=0;fillColor=none;points=[[0,0.5],[1,0.5]];portConstraint=eastwest;fontSize=16;" vertex="1" parent="ZblkUGnRswej1e16zb3S-106">
          <mxGeometry width="207" height="29" as="geometry" />
        </mxCell>
        <mxCell id="ZblkUGnRswej1e16zb3S-108" value="&lt;font style=&quot;font-size: 12px;&quot;&gt;&lt;b&gt;CIDR&lt;/b&gt;&lt;/font&gt;" style="shape=partialRectangle;html=1;whiteSpace=wrap;connectable=0;strokeColor=inherit;overflow=hidden;fillColor=none;top=0;left=0;bottom=0;right=0;pointerEvents=1;fontSize=16;" vertex="1" parent="ZblkUGnRswej1e16zb3S-107">
          <mxGeometry width="97" height="29" as="geometry">
            <mxRectangle width="97" height="29" as="alternateBounds" />
          </mxGeometry>
        </mxCell>
        <mxCell id="ZblkUGnRswej1e16zb3S-109" value="&lt;font style=&quot;font-size: 12px;&quot;&gt;&lt;b&gt;Target&lt;/b&gt;&lt;/font&gt;" style="shape=partialRectangle;html=1;whiteSpace=wrap;connectable=0;strokeColor=inherit;overflow=hidden;fillColor=none;top=0;left=0;bottom=0;right=0;pointerEvents=1;fontSize=16;" vertex="1" parent="ZblkUGnRswej1e16zb3S-107">
          <mxGeometry x="97" width="110" height="29" as="geometry">
            <mxRectangle width="110" height="29" as="alternateBounds" />
          </mxGeometry>
        </mxCell>
        <mxCell id="ZblkUGnRswej1e16zb3S-110" value="" style="shape=tableRow;horizontal=0;startSize=0;swimlaneHead=0;swimlaneBody=0;strokeColor=inherit;top=0;left=0;bottom=0;right=0;collapsible=0;dropTarget=0;fillColor=none;points=[[0,0.5],[1,0.5]];portConstraint=eastwest;fontSize=16;" vertex="1" parent="ZblkUGnRswej1e16zb3S-106">
          <mxGeometry y="29" width="207" height="24" as="geometry" />
        </mxCell>
        <mxCell id="ZblkUGnRswej1e16zb3S-111" value="&lt;font style=&quot;font-size: 12px;&quot;&gt;&lt;b style=&quot;&quot;&gt;10.0.0.0/16&lt;/b&gt;&lt;/font&gt;" style="shape=partialRectangle;html=1;whiteSpace=wrap;connectable=0;strokeColor=inherit;overflow=hidden;fillColor=none;top=0;left=0;bottom=0;right=0;pointerEvents=1;fontSize=16;" vertex="1" parent="ZblkUGnRswej1e16zb3S-110">
          <mxGeometry width="97" height="24" as="geometry">
            <mxRectangle width="97" height="24" as="alternateBounds" />
          </mxGeometry>
        </mxCell>
        <mxCell id="ZblkUGnRswej1e16zb3S-112" value="&lt;font style=&quot;font-size: 12px;&quot;&gt;&lt;b&gt;pcx-ertc45st&lt;/b&gt;&lt;/font&gt;" style="shape=partialRectangle;html=1;whiteSpace=wrap;connectable=0;strokeColor=inherit;overflow=hidden;fillColor=none;top=0;left=0;bottom=0;right=0;pointerEvents=1;fontSize=16;" vertex="1" parent="ZblkUGnRswej1e16zb3S-110">
          <mxGeometry x="97" width="110" height="24" as="geometry">
            <mxRectangle width="110" height="24" as="alternateBounds" />
          </mxGeometry>
        </mxCell>
        <mxCell id="ZblkUGnRswej1e16zb3S-116" style="shape=tableRow;horizontal=0;startSize=0;swimlaneHead=0;swimlaneBody=0;strokeColor=inherit;top=0;left=0;bottom=0;right=0;collapsible=0;dropTarget=0;fillColor=none;points=[[0,0.5],[1,0.5]];portConstraint=eastwest;fontSize=16;" vertex="1" parent="ZblkUGnRswej1e16zb3S-106">
          <mxGeometry y="53" width="207" height="20" as="geometry" />
        </mxCell>
        <mxCell id="ZblkUGnRswej1e16zb3S-117" value="&lt;font style=&quot;font-size: 11px;&quot;&gt;&lt;b&gt;172.31.0.0./16&lt;/b&gt;&lt;/font&gt;" style="shape=partialRectangle;html=1;whiteSpace=wrap;connectable=0;strokeColor=inherit;overflow=hidden;fillColor=none;top=0;left=0;bottom=0;right=0;pointerEvents=1;fontSize=16;" vertex="1" parent="ZblkUGnRswej1e16zb3S-116">
          <mxGeometry width="97" height="20" as="geometry">
            <mxRectangle width="97" height="20" as="alternateBounds" />
          </mxGeometry>
        </mxCell>
        <mxCell id="ZblkUGnRswej1e16zb3S-118" value="&lt;font style=&quot;font-size: 12px;&quot;&gt;&lt;b&gt;local&lt;/b&gt;&lt;/font&gt;" style="shape=partialRectangle;html=1;whiteSpace=wrap;connectable=0;strokeColor=inherit;overflow=hidden;fillColor=none;top=0;left=0;bottom=0;right=0;pointerEvents=1;fontSize=16;" vertex="1" parent="ZblkUGnRswej1e16zb3S-116">
          <mxGeometry x="97" width="110" height="20" as="geometry">
            <mxRectangle width="110" height="20" as="alternateBounds" />
          </mxGeometry>
        </mxCell>
        <mxCell id="ZblkUGnRswej1e16zb3S-130" value="" style="outlineConnect=0;dashed=0;verticalLabelPosition=bottom;verticalAlign=top;align=center;html=1;shape=mxgraph.aws3.vpc_nat_gateway;fillColor=#F58536;gradientColor=none;" vertex="1" parent="1">
          <mxGeometry x="305" y="180" width="50" height="50" as="geometry" />
        </mxCell>
        <mxCell id="ZblkUGnRswej1e16zb3S-133" value="" style="endArrow=classic;html=1;rounded=0;" edge="1" parent="1" source="ZblkUGnRswej1e16zb3S-17">
          <mxGeometry width="50" height="50" relative="1" as="geometry">
            <mxPoint x="680" y="-120" as="sourcePoint" />
            <mxPoint x="330" y="10" as="targetPoint" />
          </mxGeometry>
        </mxCell>
        <mxCell id="ZblkUGnRswej1e16zb3S-134" value="" style="endArrow=classic;html=1;rounded=0;entryX=0.44;entryY=1.08;entryDx=0;entryDy=0;entryPerimeter=0;" edge="1" parent="1" source="ZblkUGnRswej1e16zb3S-18" target="ZblkUGnRswej1e16zb3S-87">
          <mxGeometry width="50" height="50" relative="1" as="geometry">
            <mxPoint x="569.08" y="93" as="sourcePoint" />
            <mxPoint x="569.08" y="-7" as="targetPoint" />
            <Array as="points">
              <mxPoint x="570" y="30" />
              <mxPoint x="660" y="30" />
            </Array>
          </mxGeometry>
        </mxCell>
        <mxCell id="ZblkUGnRswej1e16zb3S-135" value="" style="endArrow=classic;html=1;rounded=0;entryX=0.585;entryY=1.033;entryDx=0;entryDy=0;entryPerimeter=0;" edge="1" parent="1" source="ZblkUGnRswej1e16zb3S-136" target="ZblkUGnRswej1e16zb3S-116">
          <mxGeometry width="50" height="50" relative="1" as="geometry">
            <mxPoint x="405" y="130" as="sourcePoint" />
            <mxPoint x="405" y="30" as="targetPoint" />
          </mxGeometry>
        </mxCell>
        <mxCell id="ZblkUGnRswej1e16zb3S-138" value="" style="endArrow=none;html=1;rounded=0;" edge="1" parent="1" target="ZblkUGnRswej1e16zb3S-19">
          <mxGeometry width="50" height="50" relative="1" as="geometry">
            <mxPoint x="660" y="30" as="sourcePoint" />
            <mxPoint x="740" y="-20" as="targetPoint" />
            <Array as="points">
              <mxPoint x="784" y="30" />
            </Array>
          </mxGeometry>
        </mxCell>
      </root>
    </mxGraphModel>
  </diagram>
</mxfile>
